<svg id="Layer_5" enable-background="new 0 0 64 64" height="512" viewBox="0 0 64 64" width="512" xmlns="http://www.w3.org/2000/svg" xmlns:xlink="http://www.w3.org/1999/xlink"><linearGradient id="SVGID_1_" gradientUnits="userSpaceOnUse" x1="32" x2="32" y1="63" y2="1"><stop offset="0" stop-color="#9f2fff"/><stop offset="1" stop-color="#0bb1d3"/></linearGradient><path d="m35.293 51.293 1.414 1.414-6.707 6.707-2.707-2.707 1.414-1.414 1.293 1.293zm1.414-44.586-1.414-1.414-5.293 5.293-1.293-1.293-1.414 1.414 2.707 2.707zm22.293 17.293c0 2.757-2.243 5-5 5s-5-2.243-5-5 2.243-5 5-5 5 2.243 5 5zm-2 0c0-1.654-1.346-3-3-3s-3 1.346-3 3 1.346 3 3 3 3-1.346 3-3zm4.792 4.342-3.124 5.355c2.702.875 4.332 2.459 4.332 4.303 0 2.851-3.869 5-9 5s-9-2.149-9-5c0-1.844 1.63-3.428 4.333-4.302l-.407-.698h-10.926c-.551 0-1 .448-1 1v14.765c1.826 1.468 3 3.715 3 6.235 0 4.411-3.589 8-8 8s-8-3.589-8-8c0-4.072 3.06-7.436 7-7.931v-30.138c-.698-.088-1.369-.263-2-.52v24.589c0 1.654-1.346 3-3 3h-1v2h-24v-5.728c0-2.37 1.687-4.432 4.01-4.901l3.616-.729c.446-.13.842-.462 1.094-.897-.549-.481-1-1.067-1.297-1.744h-.423c-1.654 0-3-1.346-3-3 0-.358.073-.697.189-1.015-.759-.973-1.189-2.184-1.189-3.426 0-3.066 2.494-5.56 5.56-5.56h3.552c.279 0 .558.029.834.071.847-.661 1.899-1.071 3.054-1.071 2.757 0 5 2.243 5 5 0 1.572-.744 2.96-1.882 3.877.544.544.882 1.295.882 2.123 0 1.654-1.346 3-3 3h-.424c-.297.676-.748 1.262-1.296 1.743.257.438.669.774 1.171.918l3.539.71c2.324.47 4.01 2.531 4.01 4.901v1.728h1c.551 0 1-.448 1-1v-25.765c-1.826-1.467-3-3.715-3-6.235 0-4.411 3.589-8 8-8s8 3.589 8 8c0 4.072-3.06 7.436-7 7.931v30.139c.698.088 1.369.263 2 .52v-13.59c0-1.654 1.346-3 3-3h9.759l-1.55-2.658c-.791-1.356-1.209-2.901-1.209-4.47 0-4.892 3.98-8.872 8.872-8.872h.256c4.892 0 8.872 3.98 8.872 8.872 0 1.569-.418 3.114-1.208 4.47zm-48.792 4.658c1.654 0 3-1.346 3-3v-2h-.764c-1.522 0-3.046-.339-4.427-.982-.46.089-.809.496-.809.982v2c0 1.654 1.346 3 3 3zm6-4c0-.551-.449-1-1-1v2c.551 0 1-.449 1-1zm-11 1v-2c-.551 0-1 .449-1 1s.449 1 1 1zm3-5h.236l.211.105c1.17.585 2.48.895 3.789.895h1.764c1.654 0 3-1.346 3-3s-1.346-3-3-3-3 1.346-3 3h-2c0-.712.154-1.386.424-2h-2.864c-1.963 0-3.56 1.597-3.56 3.56 0 .653.196 1.288.53 1.841.437-.248.934-.401 1.47-.401h.78c.55-.609 1.337-1 2.22-1zm.46 9.732c-.123.214-.268.412-.427.599.159.945.977 1.669 1.967 1.669.992 0 1.811-.727 1.967-1.675-.16-.185-.304-.382-.426-.593-.489.16-1 .268-1.541.268s-1.052-.108-1.54-.268zm11.54 5.54c0-1.422-1.012-2.659-2.406-2.94l-3.616-.729c-.097-.028-.187-.066-.28-.1-.599 1.468-2.029 2.497-3.698 2.497-1.671 0-3.102-1.031-3.699-2.49-.068.023-.132.053-.201.073l-3.694.749c-1.394.281-2.406 1.519-2.406 2.94v3.728h20zm9-25.272c3.309 0 6-2.691 6-6s-2.691-6-6-6-6 2.691-6 6 2.691 6 6 6zm0 34c-3.309 0-6 2.691-6 6s2.691 6 6 6 6-2.691 6-6-2.691-6-6-6zm25.629-13.523-1.262 2.163c-.489.839-1.396 1.36-2.367 1.36s-1.878-.521-2.368-1.36l-1.262-2.163c-1.986.561-3.37 1.57-3.37 2.523 0 1.416 2.994 3 7 3s7-1.584 7-3c0-.953-1.384-1.962-3.371-2.523zm3.371-11.605c0-3.789-3.083-6.872-6.872-6.872h-.256c-3.789 0-6.872 3.083-6.872 6.872 0 1.215.324 2.412.936 3.462l5.424 9.297c.265.455 1.016.455 1.28 0l5.424-9.297c.612-1.05.936-2.247.936-3.462zm-42 24.128h-14v2h14zm-14 6h14v-2h-14zm0 4h2v-2h-2zm6 0v-2h-2v2zm4 0v-2h-2v2zm4 0v-2h-2v2z" fill="url(#SVGID_1_)"/></svg>